<svg width="1434" height="1434" xmlns="http://www.w3.org/2000/svg" xmlns:xlink="http://www.w3.org/1999/xlink" xml:space="preserve" overflow="hidden"><g transform="translate(67 2)"><path d="M1038.95 427.981C961.232 427.981 898.228 490.985 898.228 568.704 898.228 626.993 933.668 677.004 984.175 698.367L1004.17 704.574 919.699 704.574C874.352 704.574 837.591 741.334 837.591 786.681L837.591 797.156 838.532 806.486 837.591 806.486 837.591 1039.41 1240.31 1039.41 1240.31 806.486 1239.37 806.486 1240.31 797.156 1240.31 786.681C1240.31 741.334 1203.55 704.574 1158.2 704.574L1073.73 704.574 1093.73 698.367C1144.23 677.004 1179.67 626.993 1179.67 568.704 1179.67 490.985 1116.67 427.981 1038.95 427.981ZM254.792 396.795C177.073 396.795 114.07 459.799 114.07 537.517 114.07 595.807 149.509 645.818 200.016 667.181L220.011 673.388 135.54 673.388C90.1934 673.388 53.4328 710.148 53.4328 755.495L53.4328 765.969 54.3735 775.3 53.4328 775.3 53.4328 1008.22 456.151 1008.22 456.151 775.3 455.21 775.3 456.151 765.969 456.151 755.495C456.151 710.148 419.39 673.388 374.044 673.388L289.573 673.388 309.567 667.181C360.075 645.818 395.514 595.807 395.514 537.517 395.514 459.799 332.511 396.795 254.792 396.795ZM671.027 309.732C563.829 309.732 476.928 379.978 476.928 466.63 476.928 499.125 489.148 529.312 510.077 554.354L523.61 567.612 434.873 623.528 671.023 623.528 671.027 623.528C778.225 623.528 865.126 553.283 865.126 466.63 865.126 379.978 778.225 309.732 671.027 309.732ZM650 0.499836C1044.61 0.499836 1364.5 320.392 1364.5 715 1364.5 1109.61 1044.61 1429.5 650 1429.5 255.392 1429.5-64.5001 1109.61-64.5001 715-64.5001 320.392 255.392 0.499836 650 0.499836Z" stroke="#000000" stroke-width="4.58333" stroke-miterlimit="8" fill-rule="evenodd"/></g></svg>