<svg width="525" height="525" xmlns="http://www.w3.org/2000/svg" xmlns:xlink="http://www.w3.org/1999/xlink" xml:space="preserve" overflow="hidden"><g transform="translate(-127 -251)"><path d="M497.905 549.34 510.272 549.431C521.18 550.939 530.85 555.254 537.459 562.124 554.476 579.815 545.045 607.461 517.13 621.718 507.114 626.833 496.011 629.508 485.358 629.712L479.723 629.147 485.13 620.338C492.809 604.301 497.21 586.64 497.949 568.554L497.421 563.095 497.904 563.095ZM497.904 520.316 258.849 520.317 258.849 563.095 260.107 563.095 259.916 580.001C264.513 616.088 283.717 649.031 313.563 669.433 356.572 698.832 412.49 695.997 452.646 662.383L461.774 652.861 482.7 656.231C499.798 656.558 517.596 652.213 533.258 643.142 571.858 620.787 584.127 577.899 560.421 548.19 550.317 535.527 535.176 527.24 518.102 523.93L497.905 523.055ZM447.4 353.608 447.4 353.608 437.387 357.007C428.392 362.551 422.827 373.998 424.07 386.576 425.313 399.154 433.011 409.291 442.918 412.967L453.403 414.34 453.447 414.781C460.884 414.046 467.585 420.247 468.414 428.633 469.243 437.019 463.886 444.412 456.448 445.147L456.5 445.669 449.035 447.79C441.649 451.388 436.035 458.821 434.129 468.171 432.18 477.729 434.431 487.685 439.811 495.082L441.214 496.496 443.285 500.573C444.725 501.83 446.611 502.51 448.6 502.313 452.577 501.92 455.463 498.172 455.045 493.942L452.719 489.362 453.01 488.82C447.898 485.263 445.369 478.425 446.774 471.963 448.119 465.776 452.781 461.286 458.44 460.727L458.386 460.182 467.963 456.931C476.958 451.387 482.523 439.939 481.28 427.362 480.036 414.783 472.338 404.647 462.432 400.971L451.946 399.598 451.903 399.157C444.465 399.892 437.764 393.69 436.935 385.305 436.521 381.112 437.653 377.167 439.819 374.179L448.759 368.875 448.915 368.926C452.892 368.533 455.778 364.785 455.36 360.555 455.151 358.44 454.155 356.605 452.715 355.347ZM373.764 353.607 373.763 353.607 363.75 357.006C354.755 362.55 349.19 373.998 350.433 386.576 351.676 399.154 359.375 409.29 369.281 412.966L379.766 414.339 379.81 414.78C387.247 414.045 393.948 420.247 394.777 428.632 395.606 437.018 390.249 444.411 382.811 445.146L382.863 445.668 375.398 447.79C368.012 451.387 362.398 458.82 360.492 468.17 358.543 477.729 360.794 487.685 366.174 495.081L367.577 496.495 369.648 500.572C371.088 501.83 372.974 502.509 374.963 502.312 378.94 501.919 381.826 498.171 381.408 493.941L379.082 489.361 379.373 488.819C374.262 485.262 371.733 478.425 373.138 471.962 374.483 465.775 379.144 461.286 384.803 460.726L384.749 460.181 394.326 456.93C403.321 451.386 408.886 439.939 407.642 427.361 406.399 414.783 398.701 404.646 388.795 400.97L378.309 399.597 378.266 399.156C370.829 399.891 364.128 393.69 363.299 385.304 362.884 381.111 364.016 377.166 366.182 374.178L375.122 368.875 375.277 368.926C379.255 368.533 382.141 364.785 381.723 360.554 381.514 358.439 380.519 356.604 379.078 355.347ZM296.456 350.334 296.456 350.334 286.443 353.734C277.447 359.278 271.883 370.725 273.126 383.303 274.369 395.881 282.067 406.018 291.973 409.693L302.459 411.067 302.502 411.508C309.94 410.773 316.641 416.974 317.469 425.36 318.298 433.745 312.941 441.139 305.504 441.874L305.555 442.395 298.09 444.518C290.705 448.114 285.091 455.548 283.185 464.898 281.236 474.456 283.487 484.412 288.866 491.808L290.27 493.222 292.34 497.3C293.781 498.557 295.666 499.236 297.655 499.04 301.633 498.647 304.519 494.899 304.101 490.668L301.774 486.089 302.065 485.546C296.954 481.989 294.425 475.152 295.83 468.689 297.175 462.502 301.836 458.013 307.496 457.453L307.442 456.909 317.019 453.657C326.014 448.114 331.578 436.666 330.335 424.088 329.092 411.51 321.394 401.374 311.487 397.698L301.002 396.325 300.958 395.884C293.521 396.619 286.82 390.417 285.991 382.031 285.577 377.839 286.709 373.894 288.874 370.905L297.814 365.602 297.97 365.653C301.948 365.26 304.834 361.512 304.416 357.282 304.207 355.166 303.211 353.332 301.771 352.074ZM389.845 253.308C533.352 253.308 649.688 369.643 649.688 513.151 649.688 656.657 533.352 772.993 389.845 772.993 246.338 772.993 130.003 656.658 130.003 513.15 130.003 369.644 246.338 253.308 389.845 253.308Z" stroke="#000000" stroke-width="4.58333" stroke-miterlimit="8" fill-rule="evenodd"/></g></svg>