<svg width="749" height="749" xmlns="http://www.w3.org/2000/svg" xmlns:xlink="http://www.w3.org/1999/xlink" xml:space="preserve" overflow="hidden"><g transform="translate(5 -595)"><path d="M487.513 1052.76C509.036 1052.76 526.483 1070.21 526.483 1091.73 526.483 1113.25 509.036 1130.7 487.513 1130.7 465.991 1130.7 448.543 1113.25 448.543 1091.73 448.543 1070.21 465.991 1052.76 487.513 1052.76ZM275.879 990.532C297.402 990.532 314.849 1007.98 314.849 1029.5 314.849 1051.02 297.402 1068.47 275.879 1068.47 254.356 1068.47 236.909 1051.02 236.909 1029.5 236.909 1007.98 254.356 990.532 275.879 990.532ZM278.224 874.152C299.747 874.152 317.194 891.599 317.194 913.122 317.194 934.645 299.747 952.093 278.224 952.092 256.701 952.092 239.254 934.645 239.254 913.122 239.254 891.599 256.701 874.152 278.224 874.152ZM278.224 757.772C299.747 757.772 317.194 775.219 317.194 796.742 317.194 818.265 299.747 835.712 278.224 835.712 256.701 835.712 239.254 818.265 239.254 796.742 239.254 775.219 256.701 757.772 278.224 757.772ZM369.5 597.5C574.95 597.5 741.5 764.05 741.5 969.5 741.5 1059.38 709.621 1141.82 656.553 1206.13L645.942 1217.8 650.061 1197.4 650.061 986.06C650.061 956.88 626.406 933.225 597.226 933.225L483.084 933.225 486.439 915.982C486.439 902.46 481.281 888.938 470.964 878.621L315.807 723.465C305.49 713.148 291.969 707.989 278.447 707.989 264.925 707.989 251.403 713.148 241.086 723.465L91.6484 872.903C71.0148 893.536 71.0148 926.99 91.6484 947.624L246.805 1102.78C267.439 1123.41 300.892 1123.41 321.526 1102.78L324.966 1099.34 324.966 1197.4C324.966 1226.58 348.621 1250.23 377.801 1250.23L597.226 1250.23 617.609 1246.12 606.127 1256.55C541.823 1309.62 459.384 1341.5 369.5 1341.5 164.05 1341.5-2.4999 1174.95-2.4999 969.5-2.4999 764.05 164.05 597.5 369.5 597.5Z" stroke="#000000" stroke-width="4.58333" stroke-miterlimit="8" fill-rule="evenodd"/><path d="M325.5 985.335C325.5 956.155 349.155 932.5 378.335 932.5L597.665 932.5C626.845 932.5 650.5 956.155 650.5 985.335L650.5 1196.67C650.5 1225.85 626.845 1249.5 597.665 1249.5L378.335 1249.5C349.155 1249.5 325.5 1225.85 325.5 1196.67Z" stroke="#000000" stroke-width="4.58333" stroke-miterlimit="8" fill="none" fill-rule="evenodd"/></g></svg>