<svg width="217" height="328" xmlns="http://www.w3.org/2000/svg" xmlns:xlink="http://www.w3.org/1999/xlink" xml:space="preserve" overflow="hidden"><g transform="translate(-497 -507)"><path d="M101.5 233.037C85.9146 233.037 73.2807 220.458 73.2807 204.94 73.2807 189.422 85.9146 176.843 101.5 176.843 117.085 176.843 129.719 189.422 129.719 204.94 129.719 220.458 117.085 233.037 101.5 233.037ZM101.5 306C157.557 306 203 260.754 203 204.94 203 190.986 200.16 177.693 195.024 165.602L187.212 151.272 187.708 151.272 101.5 0 15.2921 151.272 15.7886 151.272 7.97617 165.602C2.8403 177.693 0 190.986 0 204.94 0 260.754 45.443 306 101.5 306Z" stroke="#000000" stroke-width="13.75" stroke-miterlimit="8" fill="none" fill-rule="evenodd" transform="matrix(1 0 0 -1 504 820)"/></g></svg>