<svg width="254" height="370" xmlns="http://www.w3.org/2000/svg" xmlns:xlink="http://www.w3.org/1999/xlink" xml:space="preserve" overflow="hidden"><g transform="translate(-316 -410)"><path d="M113 260.453C95.6487 260.453 81.5833 246.394 81.5833 229.051 81.5833 211.707 95.6487 197.648 113 197.648 130.35 197.648 144.416 211.707 144.416 229.051 144.416 246.394 130.35 260.453 113 260.453ZM113 342C175.408 342 226 291.431 226 229.05 226 213.455 222.838 198.598 217.12 185.085L208.422 169.069 208.975 169.069 113 0 17.0246 169.069 17.5775 169.069 8.87986 185.085C3.16211 198.598 0 213.455 0 229.05 0 291.431 50.5917 342 113 342Z" stroke="#FFFFFF" stroke-width="27.5" stroke-linecap="round" stroke-linejoin="round" stroke-miterlimit="10" fill="none" fill-rule="evenodd" transform="matrix(1 0 0 -1 330 766)"/></g></svg>