<svg width="1145" height="1129" xmlns="http://www.w3.org/2000/svg" xmlns:xlink="http://www.w3.org/1999/xlink" xml:space="preserve" overflow="hidden"><g transform="translate(60 -173)"><path d="M503.738 931.723 514.586 937.831C523.75 942.401 533.233 946.551 543.018 950.25 552.804 953.949 562.661 957.109 572.557 959.744L600.115 965.62 598.463 973.798C590.569 992.445 572.089 1005.53 550.55 1005.53 521.832 1005.53 498.552 982.269 498.552 953.575 498.552 946.402 500.007 939.568 502.638 933.352ZM290.678 919.478C319.396 919.478 342.676 942.739 342.676 971.433 342.676 1000.13 319.396 1023.39 290.678 1023.39 261.96 1023.39 238.679 1000.13 238.679 971.433 238.679 942.739 261.96 919.478 290.678 919.478ZM628.473 796.231C657.191 796.232 680.472 819.492 680.472 848.186 680.472 876.879 657.191 900.14 628.473 900.14 599.755 900.141 576.475 876.879 576.475 848.186 576.475 819.492 599.755 796.231 628.473 796.231ZM818.634 697.096C847.351 697.096 870.632 720.357 870.632 749.05 870.632 777.744 847.351 801.005 818.633 801.005 789.915 801.005 766.635 777.744 766.635 749.05 766.635 720.357 789.915 697.096 818.634 697.096ZM345.402 636.846 348.905 637.376 347.632 648.886C345.84 678.625 348.506 708.127 355.23 736.508L355.953 738.627 345.402 740.755C316.684 740.755 293.403 717.495 293.403 688.801 293.403 660.107 316.684 636.846 345.402 636.846ZM471.646 615.046C500.364 615.046 523.645 638.307 523.645 667 523.645 695.694 500.364 718.955 471.646 718.955 442.928 718.955 419.648 695.694 419.648 667 419.647 638.307 442.928 615.046 471.646 615.046ZM628.473 454.756C657.191 454.756 680.472 478.017 680.472 506.711 680.472 535.404 657.191 558.665 628.473 558.665 599.755 558.665 576.475 535.404 576.475 506.711 576.475 478.017 599.755 454.756 628.473 454.756ZM638.748 364.297C550.225 367.701 466.495 409.995 411.42 480.426L402.664 493.543 383.146 494.528C230.306 510.036 111.036 639.005 111.036 795.807 111.036 963.063 246.739 1098.65 414.136 1098.65 516.145 1098.65 606.383 1048.3 661.317 971.12L662.187 969.669 691.091 967.143C797.624 952.583 893.037 881.711 933.761 774.162 941.165 754.608 946.411 734.767 949.617 714.901L950.993 702.452 939.281 705.211C932.265 705.481 925.079 704.381 918.099 701.742 890.176 691.187 876.104 660.015 886.668 632.116L887.459 630.709 877.011 629.944C853.046 625.939 832.164 613.2 820.044 592.676 804.895 567.021 807.023 535.273 822.688 508.033L823.353 507.083 823.198 507.058C792.82 495.575 777.51 461.66 789.003 431.307 791.876 423.718 796.153 417.071 801.426 411.548L806.394 408.035 792.768 399.675C781.514 393.704 769.756 388.374 757.524 383.751 718.382 368.954 678.092 362.785 638.748 364.297ZM512.5 175.5C827.302 175.5 1082.5 427.116 1082.5 737.5 1082.5 1047.88 827.302 1299.5 512.5 1299.5 197.698 1299.5-57.4999 1047.88-57.4999 737.5-57.4999 427.116 197.698 175.5 512.5 175.5Z" stroke="#172C51" stroke-width="4.58333" stroke-miterlimit="8" fill-rule="evenodd"/><path d="M844.897 899.255C716.371 1006.18 525.503 988.661 418.582 860.135 326.204 749.091 325.151 588.25 416.066 476.005" stroke="#000000" stroke-width="3.4375" stroke-miterlimit="8" fill="none" fill-rule="evenodd"/></g></svg>