<svg width="723" height="723" xmlns="http://www.w3.org/2000/svg" xmlns:xlink="http://www.w3.org/1999/xlink" xml:space="preserve" overflow="hidden"><g transform="translate(-435 -439)"><path d="M672.633 642.309C649.871 642.309 630.341 656.148 621.999 675.871L619.299 689.245 617.697 682.878C615.211 678.783 611.776 676.25 607.983 676.25 600.395 676.25 594.245 686.381 594.245 698.878 594.245 711.375 600.395 721.505 607.983 721.505 611.776 721.505 615.211 718.972 617.697 714.878L619.661 707.07 621.999 718.652C630.341 738.375 649.871 752.214 672.633 752.214L623.068 752.214C609.381 752.214 598.285 763.31 598.285 776.997L598.285 861.31 574.76 861.31C561.928 861.31 551.526 871.712 551.526 884.544L551.526 977.478C551.526 990.31 561.928 1000.71 574.76 1000.71L1018.24 1000.71C1031.07 1000.71 1041.47 990.31 1041.47 977.478L1041.47 884.544C1041.47 871.712 1031.07 861.31 1018.24 861.31L994.716 861.31 994.716 776.997C994.716 763.31 983.62 752.214 969.933 752.214L920.368 752.214C943.13 752.214 962.66 738.375 971.002 718.652L973.34 707.07 975.304 714.878C977.79 718.972 981.225 721.505 985.018 721.505 992.606 721.505 998.756 711.375 998.756 698.878 998.756 686.381 992.606 676.25 985.018 676.25 981.225 676.25 977.79 678.783 975.304 682.878L973.702 689.245 971.002 675.871C962.66 656.148 943.13 642.309 920.368 642.309 897.606 642.309 878.076 656.148 869.734 675.871L865.573 696.482 862.152 682.878C859.665 678.783 856.231 676.25 852.437 676.25 844.85 676.25 838.699 686.381 838.699 698.878 838.699 711.375 844.85 721.505 852.437 721.505 856.231 721.505 859.665 718.972 862.152 714.878L865.935 699.834 869.734 718.652C878.076 738.375 897.606 752.214 920.368 752.214L870.804 752.214C867.382 752.214 864.122 752.907 861.157 754.162L859.233 755.459 821.469 712.804C819.645 710.743 817.159 709.618 814.613 709.463 812.068 709.308 809.463 710.124 807.403 711.948L799.86 718.626C795.739 722.274 795.356 728.572 799.004 732.693L846.021 785.799 846.021 861.31 746.98 861.31 746.98 785.799 793.997 732.693C797.645 728.572 797.262 722.274 793.141 718.626L785.598 711.948C783.538 710.124 780.933 709.308 778.388 709.463 775.842 709.618 773.356 710.743 771.532 712.804L733.768 755.459 731.844 754.162C728.879 752.907 725.619 752.214 722.197 752.214L672.633 752.214C695.395 752.214 714.925 738.375 723.267 718.652L727.066 699.834 730.849 714.878C733.336 718.972 736.77 721.505 740.564 721.505 748.151 721.505 754.302 711.375 754.302 698.878 754.302 686.381 748.151 676.25 740.564 676.25 736.77 676.25 733.336 678.783 730.849 682.878L727.428 696.482 723.267 675.871C714.925 656.148 695.395 642.309 672.633 642.309ZM796.5 442.5C994.218 442.5 1154.5 602.782 1154.5 800.5 1154.5 998.218 994.218 1158.5 796.5 1158.5 598.782 1158.5 438.5 998.218 438.5 800.5 438.5 602.782 598.782 442.5 796.5 442.5Z" stroke="#FFFFFF" stroke-width="6.875" stroke-miterlimit="8" fill-rule="evenodd"/><path d="M604.696 677.405C601.803 652.346 630.71 630.508 669.262 628.627 707.813 626.747 741.411 645.536 744.304 670.595 744.557 672.785 744.565 674.984 744.33 677.174" stroke="#FFFFFF" stroke-width="6.875" stroke-miterlimit="8" fill="none" fill-rule="evenodd"/><path d="M850.692 678.905C847.83 653.57 876.764 631.507 915.318 629.626 953.872 627.745 987.446 646.759 990.308 672.095 990.555 674.285 990.563 676.483 990.333 678.674" stroke="#FFFFFF" stroke-width="6.875" stroke-miterlimit="8" fill="none" fill-rule="evenodd"/></g></svg>